<?xml version="1.0" encoding="UTF-8"?>
<!DOCTYPE svg PUBLIC "-//W3C//DTD SVG 1.1//EN" "http://www.w3.org/Graphics/SVG/1.1/DTD/svg11.dtd">
<!-- Creator: CorelDRAW -->
<svg xmlns="http://www.w3.org/2000/svg" xml:space="preserve" width="8.5in" height="11in" version="1.1" style="shape-rendering:geometricPrecision; text-rendering:geometricPrecision; image-rendering:optimizeQuality; fill-rule:evenodd; clip-rule:evenodd"
viewBox="0 0 8500 11000"
 xmlns:xlink="http://www.w3.org/1999/xlink"
 xmlns:xodm="http://www.corel.com/coreldraw/odm/2003">
 <defs>
  <style type="text/css">
   <![CDATA[
    .str0 {stroke:#FEFEFE;stroke-width:6.94;stroke-miterlimit:2.61313}
    .fil1 {fill:#EBECEC}
    .fil0 {fill:#D9DADA}
   ]]>
  </style>
 </defs>
 <g id="Layer_x0020_1">
  <metadata id="CorelCorpID_0Corel-Layer"/>
  <g id="_1233947066832">
   <path class="fil0 str0" d="M1749.37 3544.11c785.51,-3270.97 4754.26,-4815.26 4646.15,667.41 -75.06,3806.56 2710.22,3312.77 1399.56,6181.75 -284.59,622.97 -3065.28,88.29 -5293.44,445.92 -1152.17,184.93 -1620.01,-325.63 -1732.29,-1435.54 -137.97,-1363.88 812.5,-5161.93 980.02,-5859.54z"/>
   <path class="fil0 str0" d="M1515.43 3304.01c785.51,-3270.97 4754.26,-4815.26 4646.15,667.41 -75.06,3806.56 2710.22,3312.78 1399.56,6181.75 -284.59,622.97 -3065.27,88.29 -5293.44,445.92 -1152.17,184.93 -1620.01,-325.63 -1732.29,-1435.54 -137.97,-1363.88 812.5,-5161.93 980.02,-5859.55z"/>
   <path class="fil1 str0" d="M1281.48 3063.91c785.51,-3270.97 4754.26,-4815.27 4646.15,667.41 -75.06,3806.56 2710.23,3312.78 1399.56,6181.75 -284.59,622.97 -3065.28,88.29 -5293.44,445.92 -1152.17,184.93 -1620.02,-325.63 -1732.3,-1435.54 -137.97,-1363.88 812.5,-5161.93 980.02,-5859.54z"/>
  </g>
 </g>
</svg>
